<svg width="340" height="340" viewBox="0 0 340 340" fill="none" xmlns="http://www.w3.org/2000/svg">
<path d="M150.523 240.551L155 211H183L177.888 232.3C177.435 234.186 178.865 236 180.805 236H183.424C185.814 236 187.244 238.659 185.927 240.653L154 289L164.994 247.773C165.502 245.868 164.066 244 162.095 244H153.489C151.653 244 150.248 242.366 150.523 240.551Z" fill="url(#paint0_linear_51_869)"/>
<g filter="url(#filter0_bdi_51_869)">
<path fill-rule="evenodd" clip-rule="evenodd" d="M228 211H106V210.989C105.668 210.996 105.334 211 105 211C80.1472 211 60 190.853 60 166C60 149.134 69.2787 134.435 83.0099 126.73C83.0033 126.321 83 125.911 83 125.5C83 84.3548 116.355 51 157.5 51C192.991 51 222.686 75.8177 230.177 109.046C257.334 110.186 279 132.563 279 160C279 186.82 258.297 208.805 232 210.845V211H228Z" fill="url(#paint1_radial_51_869)" fill-opacity="0.77"/>
</g>
<g style="mix-blend-mode:soft-light" filter="url(#filter1_di_51_869)">
<circle cx="105" cy="166" r="45" fill="#848484"/>
</g>
<mask id="mask0_51_869" style="mask-type:alpha" maskUnits="userSpaceOnUse" x="60" y="51" width="219" height="160">
<path fill-rule="evenodd" clip-rule="evenodd" d="M106 210.989C105.668 210.996 105.334 211 105 211C80.1472 211 60 190.853 60 166C60 149.134 69.2787 134.435 83.0099 126.73C83.0033 126.321 83 125.911 83 125.5C83 84.3548 116.355 51 157.5 51C192.991 51 222.686 75.8177 230.177 109.046C257.334 110.186 279 132.563 279 160C279 188.167 256.167 211 228 211C226.654 211 225.32 210.948 224 210.845V211H106V210.989Z" fill="url(#paint2_radial_51_869)" fill-opacity="0.77"/>
</mask>
<g mask="url(#mask0_51_869)">
<g filter="url(#filter2_f_51_869)">
<path d="M167 173C140.544 192.479 116.514 206.005 101 211H238C221.343 211 186.189 184.55 167 173Z" fill="url(#paint3_radial_51_869)"/>
</g>
<g style="mix-blend-mode:screen" filter="url(#filter3_f_51_869)">
<path d="M174 156C156.448 165.573 131.293 210.545 121 213H226C214.949 213 186.73 161.677 174 156Z" fill="url(#paint4_linear_51_869)"/>
</g>
<g style="mix-blend-mode:screen" filter="url(#filter4_f_51_869)">
<path d="M169 168C157.781 174.402 141.579 211.358 135 213L202 211C194.936 211 177.137 171.796 169 168Z" fill="url(#paint5_linear_51_869)"/>
</g>
</g>
<defs>
<filter id="filter0_bdi_51_869" x="28" y="35" width="283" height="224" filterUnits="userSpaceOnUse" color-interpolation-filters="sRGB">
<feFlood flood-opacity="0" result="BackgroundImageFix"/>
<feGaussianBlur in="BackgroundImageFix" stdDeviation="8"/>
<feComposite in2="SourceAlpha" operator="in" result="effect1_backgroundBlur_51_869"/>
<feColorMatrix in="SourceAlpha" type="matrix" values="0 0 0 0 0 0 0 0 0 0 0 0 0 0 0 0 0 0 127 0" result="hardAlpha"/>
<feOffset dy="16"/>
<feGaussianBlur stdDeviation="16"/>
<feColorMatrix type="matrix" values="0 0 0 0 0 0 0 0 0 0.2015 0 0 0 0 0.3875 0 0 0 0.2 0"/>
<feBlend mode="normal" in2="effect1_backgroundBlur_51_869" result="effect2_dropShadow_51_869"/>
<feBlend mode="normal" in="SourceGraphic" in2="effect2_dropShadow_51_869" result="shape"/>
<feColorMatrix in="SourceAlpha" type="matrix" values="0 0 0 0 0 0 0 0 0 0 0 0 0 0 0 0 0 0 127 0" result="hardAlpha"/>
<feOffset dx="1" dy="2"/>
<feGaussianBlur stdDeviation="7"/>
<feComposite in2="hardAlpha" operator="arithmetic" k2="-1" k3="1"/>
<feColorMatrix type="matrix" values="0 0 0 0 1 0 0 0 0 1 0 0 0 0 1 0 0 0 1 0"/>
<feBlend mode="normal" in2="shape" result="effect3_innerShadow_51_869"/>
</filter>
<filter id="filter1_di_51_869" x="52" y="105" width="120" height="118" filterUnits="userSpaceOnUse" color-interpolation-filters="sRGB">
<feFlood flood-opacity="0" result="BackgroundImageFix"/>
<feColorMatrix in="SourceAlpha" type="matrix" values="0 0 0 0 0 0 0 0 0 0 0 0 0 0 0 0 0 0 127 0" result="hardAlpha"/>
<feOffset dx="-2" dy="-10"/>
<feGaussianBlur stdDeviation="3"/>
<feColorMatrix type="matrix" values="0 0 0 0 0 0 0 0 0 0 0 0 0 0 0 0 0 0 0.22 0"/>
<feBlend mode="normal" in2="BackgroundImageFix" result="effect1_dropShadow_51_869"/>
<feBlend mode="normal" in="SourceGraphic" in2="effect1_dropShadow_51_869" result="shape"/>
<feColorMatrix in="SourceAlpha" type="matrix" values="0 0 0 0 0 0 0 0 0 0 0 0 0 0 0 0 0 0 127 0" result="hardAlpha"/>
<feOffset dx="22" dy="12"/>
<feGaussianBlur stdDeviation="11"/>
<feComposite in2="hardAlpha" operator="arithmetic" k2="-1" k3="1"/>
<feColorMatrix type="matrix" values="0 0 0 0 1 0 0 0 0 1 0 0 0 0 1 0 0 0 0.74 0"/>
<feBlend mode="normal" in2="shape" result="effect2_innerShadow_51_869"/>
</filter>
<filter id="filter2_f_51_869" x="93" y="165" width="153" height="54" filterUnits="userSpaceOnUse" color-interpolation-filters="sRGB">
<feFlood flood-opacity="0" result="BackgroundImageFix"/>
<feBlend mode="normal" in="SourceGraphic" in2="BackgroundImageFix" result="shape"/>
<feGaussianBlur stdDeviation="4" result="effect1_foregroundBlur_51_869"/>
</filter>
<filter id="filter3_f_51_869" x="117" y="152" width="113" height="65" filterUnits="userSpaceOnUse" color-interpolation-filters="sRGB">
<feFlood flood-opacity="0" result="BackgroundImageFix"/>
<feBlend mode="normal" in="SourceGraphic" in2="BackgroundImageFix" result="shape"/>
<feGaussianBlur stdDeviation="2" result="effect1_foregroundBlur_51_869"/>
</filter>
<filter id="filter4_f_51_869" x="131" y="164" width="75" height="53" filterUnits="userSpaceOnUse" color-interpolation-filters="sRGB">
<feFlood flood-opacity="0" result="BackgroundImageFix"/>
<feBlend mode="normal" in="SourceGraphic" in2="BackgroundImageFix" result="shape"/>
<feGaussianBlur stdDeviation="2" result="effect1_foregroundBlur_51_869"/>
</filter>
<linearGradient id="paint0_linear_51_869" x1="172.067" y1="211" x2="172.067" y2="263" gradientUnits="userSpaceOnUse">
<stop stop-color="#E2BC38"/>
<stop offset="1" stop-color="#FFE244"/>
</linearGradient>
<radialGradient id="paint1_radial_51_869" cx="0" cy="0" r="1" gradientUnits="userSpaceOnUse" gradientTransform="translate(137.164 85.1144) rotate(90.6693) scale(125.829 143.587)">
<stop stop-color="white"/>
<stop offset="1" stop-color="#99CEFF"/>
</radialGradient>
<radialGradient id="paint2_radial_51_869" cx="0" cy="0" r="1" gradientUnits="userSpaceOnUse" gradientTransform="translate(137.164 85.1144) rotate(90.6693) scale(125.829 143.587)">
<stop stop-color="white"/>
<stop offset="1" stop-color="#99CEFF"/>
</radialGradient>
<radialGradient id="paint3_radial_51_869" cx="0" cy="0" r="1" gradientUnits="userSpaceOnUse" gradientTransform="translate(179.889 206.786) rotate(-90) scale(21.5393 111.274)">
<stop stop-color="#FFDE41"/>
<stop offset="1" stop-color="#FFD200" stop-opacity="0"/>
</radialGradient>
<linearGradient id="paint4_linear_51_869" x1="176.322" y1="211.888" x2="176.322" y2="204.542" gradientUnits="userSpaceOnUse">
<stop stop-color="#FFDE41"/>
<stop offset="1" stop-color="#FFD200" stop-opacity="0"/>
</linearGradient>
<linearGradient id="paint5_linear_51_869" x1="170.361" y1="212.224" x2="170.361" y2="202.077" gradientUnits="userSpaceOnUse">
<stop stop-color="#FFDE41"/>
<stop offset="1" stop-color="#FFD200" stop-opacity="0"/>
</linearGradient>
</defs>
</svg>
