<svg width="340" height="340" viewBox="0 0 340 340" fill="none" xmlns="http://www.w3.org/2000/svg">
<path d="M258 70L263.431 80.5694L274 86L263.431 91.4306L258 102L252.569 91.4306L242 86L252.569 80.5694L258 70Z" fill="#F5D540"/>
<path d="M222 39L225.394 45.6059L232 49L225.394 52.3941L222 59L218.606 52.3941L212 49L218.606 45.6059L222 39Z" fill="#F5D540"/>
<g filter="url(#filter0_bdi_51_884)">
<path fill-rule="evenodd" clip-rule="evenodd" d="M107 221.989C106.668 221.996 106.334 222 106 222C81.1472 222 61 201.853 61 177C61 160.134 70.2787 145.435 84.0099 137.73C84.0033 137.321 84 136.911 84 136.5C84 95.3548 117.355 62 158.5 62C193.991 62 223.686 86.8177 231.177 120.046C258.334 121.186 280 143.563 280 171C280 199.167 257.167 222 229 222H107V221.989Z" fill="url(#paint0_radial_51_884)" fill-opacity="0.77"/>
</g>
<g style="mix-blend-mode:soft-light" filter="url(#filter1_di_51_884)">
<circle cx="106" cy="177" r="45" fill="#848484"/>
</g>
<path d="M151.523 251.551L156 222H184L178.888 243.3C178.435 245.186 179.865 247 181.805 247H184.424C186.814 247 188.244 249.659 186.927 251.653L155 300L165.994 258.773C166.502 256.868 165.066 255 163.095 255H154.489C152.653 255 151.248 253.366 151.523 251.551Z" fill="url(#paint1_linear_51_884)"/>
<mask id="mask0_51_884" style="mask-type:alpha" maskUnits="userSpaceOnUse" x="61" y="62" width="219" height="160">
<path fill-rule="evenodd" clip-rule="evenodd" d="M107 221.989C106.668 221.996 106.334 222 106 222C81.1472 222 61 201.853 61 177C61 160.134 70.2787 145.435 84.0099 137.73C84.0033 137.321 84 136.911 84 136.5C84 95.3548 117.355 62 158.5 62C193.991 62 223.686 86.8177 231.177 120.046C258.334 121.186 280 143.563 280 171C280 199.167 257.167 222 229 222C227.654 222 226.32 221.948 225 221.845V222H107V221.989Z" fill="url(#paint2_radial_51_884)" fill-opacity="0.77"/>
</mask>
<g mask="url(#mask0_51_884)">
<g filter="url(#filter2_f_51_884)">
<path d="M168 184C141.544 203.479 117.514 217.005 102 222H239C222.343 222 187.189 195.55 168 184Z" fill="url(#paint3_radial_51_884)"/>
</g>
<g style="mix-blend-mode:screen" filter="url(#filter3_f_51_884)">
<path d="M174 167C157.284 176.573 133.802 221.545 124 224H224C213.475 224 186.124 172.677 174 167Z" fill="url(#paint4_linear_51_884)"/>
</g>
<g style="mix-blend-mode:screen" filter="url(#filter4_f_51_884)">
<path d="M169 179C157.781 185.402 141.579 222.358 135 224L202 222C194.936 222 177.137 182.796 169 179Z" fill="url(#paint5_linear_51_884)"/>
</g>
</g>
<defs>
<filter id="filter0_bdi_51_884" x="29" y="46" width="283" height="224" filterUnits="userSpaceOnUse" color-interpolation-filters="sRGB">
<feFlood flood-opacity="0" result="BackgroundImageFix"/>
<feGaussianBlur in="BackgroundImageFix" stdDeviation="8"/>
<feComposite in2="SourceAlpha" operator="in" result="effect1_backgroundBlur_51_884"/>
<feColorMatrix in="SourceAlpha" type="matrix" values="0 0 0 0 0 0 0 0 0 0 0 0 0 0 0 0 0 0 127 0" result="hardAlpha"/>
<feOffset dy="16"/>
<feGaussianBlur stdDeviation="16"/>
<feColorMatrix type="matrix" values="0 0 0 0 0 0 0 0 0 0.2015 0 0 0 0 0.3875 0 0 0 0.2 0"/>
<feBlend mode="normal" in2="effect1_backgroundBlur_51_884" result="effect2_dropShadow_51_884"/>
<feBlend mode="normal" in="SourceGraphic" in2="effect2_dropShadow_51_884" result="shape"/>
<feColorMatrix in="SourceAlpha" type="matrix" values="0 0 0 0 0 0 0 0 0 0 0 0 0 0 0 0 0 0 127 0" result="hardAlpha"/>
<feOffset dx="1" dy="2"/>
<feGaussianBlur stdDeviation="7"/>
<feComposite in2="hardAlpha" operator="arithmetic" k2="-1" k3="1"/>
<feColorMatrix type="matrix" values="0 0 0 0 1 0 0 0 0 1 0 0 0 0 1 0 0 0 1 0"/>
<feBlend mode="normal" in2="shape" result="effect3_innerShadow_51_884"/>
</filter>
<filter id="filter1_di_51_884" x="53" y="116" width="120" height="118" filterUnits="userSpaceOnUse" color-interpolation-filters="sRGB">
<feFlood flood-opacity="0" result="BackgroundImageFix"/>
<feColorMatrix in="SourceAlpha" type="matrix" values="0 0 0 0 0 0 0 0 0 0 0 0 0 0 0 0 0 0 127 0" result="hardAlpha"/>
<feOffset dx="-2" dy="-10"/>
<feGaussianBlur stdDeviation="3"/>
<feColorMatrix type="matrix" values="0 0 0 0 0 0 0 0 0 0 0 0 0 0 0 0 0 0 0.22 0"/>
<feBlend mode="normal" in2="BackgroundImageFix" result="effect1_dropShadow_51_884"/>
<feBlend mode="normal" in="SourceGraphic" in2="effect1_dropShadow_51_884" result="shape"/>
<feColorMatrix in="SourceAlpha" type="matrix" values="0 0 0 0 0 0 0 0 0 0 0 0 0 0 0 0 0 0 127 0" result="hardAlpha"/>
<feOffset dx="22" dy="12"/>
<feGaussianBlur stdDeviation="11"/>
<feComposite in2="hardAlpha" operator="arithmetic" k2="-1" k3="1"/>
<feColorMatrix type="matrix" values="0 0 0 0 1 0 0 0 0 1 0 0 0 0 1 0 0 0 0.74 0"/>
<feBlend mode="normal" in2="shape" result="effect2_innerShadow_51_884"/>
</filter>
<filter id="filter2_f_51_884" x="94" y="176" width="153" height="54" filterUnits="userSpaceOnUse" color-interpolation-filters="sRGB">
<feFlood flood-opacity="0" result="BackgroundImageFix"/>
<feBlend mode="normal" in="SourceGraphic" in2="BackgroundImageFix" result="shape"/>
<feGaussianBlur stdDeviation="4" result="effect1_foregroundBlur_51_884"/>
</filter>
<filter id="filter3_f_51_884" x="120" y="163" width="108" height="65" filterUnits="userSpaceOnUse" color-interpolation-filters="sRGB">
<feFlood flood-opacity="0" result="BackgroundImageFix"/>
<feBlend mode="normal" in="SourceGraphic" in2="BackgroundImageFix" result="shape"/>
<feGaussianBlur stdDeviation="2" result="effect1_foregroundBlur_51_884"/>
</filter>
<filter id="filter4_f_51_884" x="131" y="175" width="75" height="53" filterUnits="userSpaceOnUse" color-interpolation-filters="sRGB">
<feFlood flood-opacity="0" result="BackgroundImageFix"/>
<feBlend mode="normal" in="SourceGraphic" in2="BackgroundImageFix" result="shape"/>
<feGaussianBlur stdDeviation="2" result="effect1_foregroundBlur_51_884"/>
</filter>
<radialGradient id="paint0_radial_51_884" cx="0" cy="0" r="1" gradientUnits="userSpaceOnUse" gradientTransform="translate(138.164 96.1145) rotate(90.6693) scale(125.829 143.587)">
<stop stop-color="white"/>
<stop offset="1" stop-color="#99CEFF"/>
</radialGradient>
<linearGradient id="paint1_linear_51_884" x1="173.067" y1="222" x2="173.067" y2="274" gradientUnits="userSpaceOnUse">
<stop stop-color="#E2BC38"/>
<stop offset="1" stop-color="#FFE244"/>
</linearGradient>
<radialGradient id="paint2_radial_51_884" cx="0" cy="0" r="1" gradientUnits="userSpaceOnUse" gradientTransform="translate(138.164 96.1144) rotate(90.6693) scale(125.829 143.587)">
<stop stop-color="white"/>
<stop offset="1" stop-color="#99CEFF"/>
</radialGradient>
<radialGradient id="paint3_radial_51_884" cx="0" cy="0" r="1" gradientUnits="userSpaceOnUse" gradientTransform="translate(180.889 217.786) rotate(-90) scale(21.5393 111.274)">
<stop stop-color="#FFDE41"/>
<stop offset="1" stop-color="#FFD200" stop-opacity="0"/>
</radialGradient>
<linearGradient id="paint4_linear_51_884" x1="176.688" y1="222.888" x2="176.688" y2="215.542" gradientUnits="userSpaceOnUse">
<stop stop-color="#FFDE41"/>
<stop offset="1" stop-color="#FFD200" stop-opacity="0"/>
</linearGradient>
<linearGradient id="paint5_linear_51_884" x1="170.361" y1="223.224" x2="170.361" y2="213.077" gradientUnits="userSpaceOnUse">
<stop stop-color="#FFDE41"/>
<stop offset="1" stop-color="#FFD200" stop-opacity="0"/>
</linearGradient>
</defs>
</svg>
