<svg width="340" height="340" viewBox="0 0 340 340" fill="none" xmlns="http://www.w3.org/2000/svg">
<path d="M151.523 240.551L156 211H184L178.888 232.3C178.435 234.186 179.865 236 181.805 236H184.424C186.814 236 188.244 238.659 186.927 240.653L155 289L165.994 247.773C166.502 245.868 165.066 244 163.095 244H154.489C152.653 244 151.248 242.366 151.523 240.551Z" fill="url(#paint0_linear_52_1095)"/>
<g filter="url(#filter0_bdi_52_1095)">
<path fill-rule="evenodd" clip-rule="evenodd" d="M229 211H107V210.989C106.668 210.996 106.334 211 106 211C81.1472 211 61 190.853 61 166C61 149.134 70.2787 134.435 84.0099 126.73C84.0033 126.321 84 125.911 84 125.5C84 84.3548 117.355 51 158.5 51C193.991 51 223.686 75.8177 231.177 109.046C258.334 110.186 280 132.563 280 160C280 186.82 259.297 208.805 233 210.845V211H229Z" fill="url(#paint1_radial_52_1095)" fill-opacity="0.77"/>
</g>
<g style="mix-blend-mode:soft-light" filter="url(#filter1_di_52_1095)">
<circle cx="106" cy="166" r="45" fill="#848484"/>
</g>
<mask id="mask0_52_1095" style="mask-type:alpha" maskUnits="userSpaceOnUse" x="61" y="51" width="219" height="160">
<path fill-rule="evenodd" clip-rule="evenodd" d="M107 210.989C106.668 210.996 106.334 211 106 211C81.1472 211 61 190.853 61 166C61 149.134 70.2787 134.435 84.0099 126.73C84.0033 126.321 84 125.911 84 125.5C84 84.3548 117.355 51 158.5 51C193.991 51 223.686 75.8177 231.177 109.046C258.334 110.186 280 132.563 280 160C280 188.167 257.167 211 229 211C227.654 211 226.32 210.948 225 210.845V211H107V210.989Z" fill="url(#paint2_radial_52_1095)" fill-opacity="0.77"/>
</mask>
<g mask="url(#mask0_52_1095)">
</g>
<g clip-path="url(#clip0_52_1095)">
<g filter="url(#filter2_f_52_1095)">
<path d="M168 173C141.544 192.479 117.514 206.005 102 211H239C222.343 211 187.189 184.55 168 173Z" fill="url(#paint3_radial_52_1095)"/>
</g>
<g style="mix-blend-mode:screen" filter="url(#filter3_f_52_1095)">
<path d="M174 156C157.284 165.573 133.802 210.545 124 213H224C213.475 213 186.124 161.677 174 156Z" fill="url(#paint4_linear_52_1095)"/>
</g>
<g style="mix-blend-mode:screen" filter="url(#filter4_f_52_1095)">
<path d="M169 168C157.781 174.402 141.579 211.358 135 213L202 211C194.936 211 177.137 171.796 169 168Z" fill="url(#paint5_linear_52_1095)"/>
</g>
</g>
<defs>
<filter id="filter0_bdi_52_1095" x="29" y="35" width="283" height="224" filterUnits="userSpaceOnUse" color-interpolation-filters="sRGB">
<feFlood flood-opacity="0" result="BackgroundImageFix"/>
<feGaussianBlur in="BackgroundImageFix" stdDeviation="8"/>
<feComposite in2="SourceAlpha" operator="in" result="effect1_backgroundBlur_52_1095"/>
<feColorMatrix in="SourceAlpha" type="matrix" values="0 0 0 0 0 0 0 0 0 0 0 0 0 0 0 0 0 0 127 0" result="hardAlpha"/>
<feOffset dy="16"/>
<feGaussianBlur stdDeviation="16"/>
<feColorMatrix type="matrix" values="0 0 0 0 0.0313726 0 0 0 0 0.129412 0 0 0 0 0.219608 0 0 0 0.2 0"/>
<feBlend mode="normal" in2="effect1_backgroundBlur_52_1095" result="effect2_dropShadow_52_1095"/>
<feBlend mode="normal" in="SourceGraphic" in2="effect2_dropShadow_52_1095" result="shape"/>
<feColorMatrix in="SourceAlpha" type="matrix" values="0 0 0 0 0 0 0 0 0 0 0 0 0 0 0 0 0 0 127 0" result="hardAlpha"/>
<feOffset dx="1" dy="2"/>
<feGaussianBlur stdDeviation="7"/>
<feComposite in2="hardAlpha" operator="arithmetic" k2="-1" k3="1"/>
<feColorMatrix type="matrix" values="0 0 0 0 0.0761458 0 0 0 0 0.185885 0 0 0 0 0.358333 0 0 0 1 0"/>
<feBlend mode="normal" in2="shape" result="effect3_innerShadow_52_1095"/>
</filter>
<filter id="filter1_di_52_1095" x="53" y="105" width="120" height="118" filterUnits="userSpaceOnUse" color-interpolation-filters="sRGB">
<feFlood flood-opacity="0" result="BackgroundImageFix"/>
<feColorMatrix in="SourceAlpha" type="matrix" values="0 0 0 0 0 0 0 0 0 0 0 0 0 0 0 0 0 0 127 0" result="hardAlpha"/>
<feOffset dx="-2" dy="-10"/>
<feGaussianBlur stdDeviation="3"/>
<feColorMatrix type="matrix" values="0 0 0 0 0 0 0 0 0 0 0 0 0 0 0 0 0 0 0.22 0"/>
<feBlend mode="normal" in2="BackgroundImageFix" result="effect1_dropShadow_52_1095"/>
<feBlend mode="normal" in="SourceGraphic" in2="effect1_dropShadow_52_1095" result="shape"/>
<feColorMatrix in="SourceAlpha" type="matrix" values="0 0 0 0 0 0 0 0 0 0 0 0 0 0 0 0 0 0 127 0" result="hardAlpha"/>
<feOffset dx="22" dy="12"/>
<feGaussianBlur stdDeviation="11"/>
<feComposite in2="hardAlpha" operator="arithmetic" k2="-1" k3="1"/>
<feColorMatrix type="matrix" values="0 0 0 0 1 0 0 0 0 1 0 0 0 0 1 0 0 0 0.74 0"/>
<feBlend mode="normal" in2="shape" result="effect2_innerShadow_52_1095"/>
</filter>
<filter id="filter2_f_52_1095" x="94" y="165" width="153" height="54" filterUnits="userSpaceOnUse" color-interpolation-filters="sRGB">
<feFlood flood-opacity="0" result="BackgroundImageFix"/>
<feBlend mode="normal" in="SourceGraphic" in2="BackgroundImageFix" result="shape"/>
<feGaussianBlur stdDeviation="4" result="effect1_foregroundBlur_52_1095"/>
</filter>
<filter id="filter3_f_52_1095" x="120" y="152" width="108" height="65" filterUnits="userSpaceOnUse" color-interpolation-filters="sRGB">
<feFlood flood-opacity="0" result="BackgroundImageFix"/>
<feBlend mode="normal" in="SourceGraphic" in2="BackgroundImageFix" result="shape"/>
<feGaussianBlur stdDeviation="2" result="effect1_foregroundBlur_52_1095"/>
</filter>
<filter id="filter4_f_52_1095" x="131" y="164" width="75" height="53" filterUnits="userSpaceOnUse" color-interpolation-filters="sRGB">
<feFlood flood-opacity="0" result="BackgroundImageFix"/>
<feBlend mode="normal" in="SourceGraphic" in2="BackgroundImageFix" result="shape"/>
<feGaussianBlur stdDeviation="2" result="effect1_foregroundBlur_52_1095"/>
</filter>
<linearGradient id="paint0_linear_52_1095" x1="170" y1="196" x2="160.5" y2="260" gradientUnits="userSpaceOnUse">
<stop stop-color="#D601FA"/>
<stop offset="1" stop-color="#FAC301"/>
</linearGradient>
<radialGradient id="paint1_radial_52_1095" cx="0" cy="0" r="1" gradientUnits="userSpaceOnUse" gradientTransform="translate(138.164 85.1144) rotate(90.6693) scale(125.829 143.587)">
<stop offset="0.015625" stop-color="#27364E"/>
<stop offset="1"/>
</radialGradient>
<radialGradient id="paint2_radial_52_1095" cx="0" cy="0" r="1" gradientUnits="userSpaceOnUse" gradientTransform="translate(138.164 85.1144) rotate(90.6693) scale(125.829 143.587)">
<stop stop-color="#02070F"/>
<stop offset="1" stop-color="#99CEFF"/>
</radialGradient>
<radialGradient id="paint3_radial_52_1095" cx="0" cy="0" r="1" gradientUnits="userSpaceOnUse" gradientTransform="translate(180.889 206.786) rotate(-90) scale(21.5393 111.274)">
<stop stop-color="#D601FA"/>
<stop offset="1" stop-color="#D601FA" stop-opacity="0"/>
</radialGradient>
<linearGradient id="paint4_linear_52_1095" x1="176.688" y1="211.888" x2="176.688" y2="204.542" gradientUnits="userSpaceOnUse">
<stop stop-color="#D601FA"/>
<stop offset="1" stop-color="#D601FA" stop-opacity="0"/>
</linearGradient>
<linearGradient id="paint5_linear_52_1095" x1="170.361" y1="212.224" x2="170.361" y2="202.077" gradientUnits="userSpaceOnUse">
<stop stop-color="#D601FA"/>
<stop offset="1" stop-color="#D601FA" stop-opacity="0"/>
</linearGradient>
<clipPath id="clip0_52_1095">
<rect width="137" height="50" fill="white" transform="translate(102 161)"/>
</clipPath>
</defs>
</svg>
