<svg width="340" height="340" viewBox="0 0 340 340" fill="none" xmlns="http://www.w3.org/2000/svg">
<g clip-path="url(#clip0_52_1087)">
<g filter="url(#filter0_i_52_1087)">
<path fill-rule="evenodd" clip-rule="evenodd" d="M250.786 168.022C240.364 184.213 222.206 194.932 201.55 194.932C169.214 194.932 143 168.663 143 136.259C143 110.124 160.051 87.9802 183.613 80.3895C178.714 79.477 173.662 79 168.5 79C122.937 79 86 116.16 86 162C86 207.84 122.937 245 168.5 245C212.051 245 247.72 211.05 250.786 168.022Z" fill="#4107E7"/>
</g>
<g opacity="0.6" filter="url(#filter1_f_52_1087)">
<ellipse cx="143.275" cy="176.439" rx="31.7608" ry="32.9983" transform="rotate(22.5606 143.275 176.439)" fill="#B28AE3"/>
<ellipse cx="195.11" cy="166.708" rx="43.7227" ry="45.3726" transform="rotate(22.5606 195.11 166.708)" fill="#B28AE3"/>
<ellipse cx="256.088" cy="185.349" rx="31.7608" ry="26.8169" transform="rotate(-14.8121 256.088 185.349)" fill="#B28AE3"/>
<ellipse cx="107.099" cy="172.13" rx="37.123" ry="38.773" transform="rotate(22.5606 107.099 172.13)" fill="#B28AE3"/>
<ellipse cx="60.6769" cy="181.21" rx="21.0364" ry="12.1089" transform="rotate(-21.7128 60.6769 181.21)" fill="#B28AE3"/>
</g>
</g>
<defs>
<filter id="filter0_i_52_1087" x="76" y="79" width="174.786" height="179" filterUnits="userSpaceOnUse" color-interpolation-filters="sRGB">
<feFlood flood-opacity="0" result="BackgroundImageFix"/>
<feBlend mode="normal" in="SourceGraphic" in2="BackgroundImageFix" result="shape"/>
<feColorMatrix in="SourceAlpha" type="matrix" values="0 0 0 0 0 0 0 0 0 0 0 0 0 0 0 0 0 0 127 0" result="hardAlpha"/>
<feOffset dx="-10" dy="13"/>
<feGaussianBlur stdDeviation="12"/>
<feComposite in2="hardAlpha" operator="arithmetic" k2="-1" k3="1"/>
<feColorMatrix type="matrix" values="0 0 0 0 0.98 0 0 0 0 0 0 0 0 0 1 0 0 0 0.9 0"/>
<feBlend mode="normal" in2="shape" result="effect1_innerShadow_52_1087"/>
</filter>
<filter id="filter1_f_52_1087" x="-13.3779" y="67.563" width="354.934" height="198.961" filterUnits="userSpaceOnUse" color-interpolation-filters="sRGB">
<feFlood flood-opacity="0" result="BackgroundImageFix"/>
<feBlend mode="normal" in="SourceGraphic" in2="BackgroundImageFix" result="shape"/>
<feGaussianBlur stdDeviation="27" result="effect1_foregroundBlur_52_1087"/>
</filter>
<clipPath id="clip0_52_1087">
<rect width="340" height="340" fill="white"/>
</clipPath>
</defs>
</svg>
