<svg width="340" height="340" viewBox="0 0 340 340" fill="none" xmlns="http://www.w3.org/2000/svg">
<g filter="url(#filter0_bdi_52_1093)">
<path fill-rule="evenodd" clip-rule="evenodd" d="M229 211H107V210.989C106.668 210.996 106.334 211 106 211C81.1472 211 61 190.853 61 166C61 149.134 70.2787 134.435 84.0099 126.73C84.0033 126.321 84 125.911 84 125.5C84 84.3548 117.355 51 158.5 51C193.991 51 223.686 75.8177 231.177 109.046C258.334 110.186 280 132.563 280 160C280 186.82 259.297 208.805 233 210.845V211H229Z" fill="url(#paint0_radial_52_1093)" fill-opacity="0.77"/>
</g>
<g style="mix-blend-mode:soft-light" filter="url(#filter1_di_52_1093)">
<circle cx="106" cy="166" r="45" fill="#848484"/>
</g>
<path d="M142.07 234.89C143.007 234.005 144.551 234.564 144.697 235.84L145.88 246.231C146.451 251.244 141.532 255.12 136.779 253.401C132.027 251.682 130.765 245.569 134.444 242.093L142.07 234.89Z" fill="url(#paint1_linear_52_1093)"/>
<path d="M171.07 234.89C172.007 234.005 173.551 234.564 173.697 235.84L174.88 246.231C175.451 251.244 170.532 255.12 165.779 253.401C161.027 251.682 159.765 245.569 163.444 242.093L171.07 234.89Z" fill="url(#paint2_linear_52_1093)"/>
<path d="M202.07 234.89C203.007 234.005 204.551 234.564 204.697 235.84L205.88 246.231C206.451 251.244 201.532 255.12 196.779 253.401C192.027 251.682 190.765 245.569 194.444 242.093L202.07 234.89Z" fill="url(#paint3_linear_52_1093)"/>
<path d="M152.069 266.904C153.004 266.019 154.548 266.58 154.695 267.857L155.888 278.258C156.464 283.277 151.553 287.151 146.803 285.425C142.053 283.7 140.785 277.58 144.458 274.105L152.069 266.904Z" fill="url(#paint4_linear_52_1093)"/>
<path d="M181.069 266.904C182.004 266.019 183.548 266.58 183.695 267.857L184.888 278.258C185.464 283.277 180.553 287.151 175.803 285.425C171.053 283.7 169.785 277.58 173.458 274.105L181.069 266.904Z" fill="url(#paint5_linear_52_1093)"/>
<defs>
<filter id="filter0_bdi_52_1093" x="29" y="35" width="283" height="224" filterUnits="userSpaceOnUse" color-interpolation-filters="sRGB">
<feFlood flood-opacity="0" result="BackgroundImageFix"/>
<feGaussianBlur in="BackgroundImageFix" stdDeviation="8"/>
<feComposite in2="SourceAlpha" operator="in" result="effect1_backgroundBlur_52_1093"/>
<feColorMatrix in="SourceAlpha" type="matrix" values="0 0 0 0 0 0 0 0 0 0 0 0 0 0 0 0 0 0 127 0" result="hardAlpha"/>
<feOffset dy="16"/>
<feGaussianBlur stdDeviation="16"/>
<feColorMatrix type="matrix" values="0 0 0 0 0.0294444 0 0 0 0 0.128967 0 0 0 0 0.220833 0 0 0 0.2 0"/>
<feBlend mode="normal" in2="effect1_backgroundBlur_52_1093" result="effect2_dropShadow_52_1093"/>
<feBlend mode="normal" in="SourceGraphic" in2="effect2_dropShadow_52_1093" result="shape"/>
<feColorMatrix in="SourceAlpha" type="matrix" values="0 0 0 0 0 0 0 0 0 0 0 0 0 0 0 0 0 0 127 0" result="hardAlpha"/>
<feOffset dx="1" dy="2"/>
<feGaussianBlur stdDeviation="7"/>
<feComposite in2="hardAlpha" operator="arithmetic" k2="-1" k3="1"/>
<feColorMatrix type="matrix" values="0 0 0 0 0.0761458 0 0 0 0 0.185885 0 0 0 0 0.358333 0 0 0 1 0"/>
<feBlend mode="normal" in2="shape" result="effect3_innerShadow_52_1093"/>
</filter>
<filter id="filter1_di_52_1093" x="53" y="105" width="120" height="118" filterUnits="userSpaceOnUse" color-interpolation-filters="sRGB">
<feFlood flood-opacity="0" result="BackgroundImageFix"/>
<feColorMatrix in="SourceAlpha" type="matrix" values="0 0 0 0 0 0 0 0 0 0 0 0 0 0 0 0 0 0 127 0" result="hardAlpha"/>
<feOffset dx="-2" dy="-10"/>
<feGaussianBlur stdDeviation="3"/>
<feColorMatrix type="matrix" values="0 0 0 0 0 0 0 0 0 0 0 0 0 0 0 0 0 0 0.22 0"/>
<feBlend mode="normal" in2="BackgroundImageFix" result="effect1_dropShadow_52_1093"/>
<feBlend mode="normal" in="SourceGraphic" in2="effect1_dropShadow_52_1093" result="shape"/>
<feColorMatrix in="SourceAlpha" type="matrix" values="0 0 0 0 0 0 0 0 0 0 0 0 0 0 0 0 0 0 127 0" result="hardAlpha"/>
<feOffset dx="22" dy="12"/>
<feGaussianBlur stdDeviation="11"/>
<feComposite in2="hardAlpha" operator="arithmetic" k2="-1" k3="1"/>
<feColorMatrix type="matrix" values="0 0 0 0 1 0 0 0 0 1 0 0 0 0 1 0 0 0 0.74 0"/>
<feBlend mode="normal" in2="shape" result="effect2_innerShadow_52_1093"/>
</filter>
<radialGradient id="paint0_radial_52_1093" cx="0" cy="0" r="1" gradientUnits="userSpaceOnUse" gradientTransform="translate(138.164 85.1144) rotate(90.6693) scale(125.829 143.587)">
<stop offset="0.015625" stop-color="#27364E"/>
<stop offset="1"/>
</radialGradient>
<linearGradient id="paint1_linear_52_1093" x1="144.344" y1="232.742" x2="136.859" y2="253.43" gradientUnits="userSpaceOnUse">
<stop stop-color="#C4F0F4"/>
<stop offset="1" stop-color="#0057FF"/>
</linearGradient>
<linearGradient id="paint2_linear_52_1093" x1="173.344" y1="232.742" x2="165.859" y2="253.43" gradientUnits="userSpaceOnUse">
<stop stop-color="#C4F0F4"/>
<stop offset="1" stop-color="#0057FF"/>
</linearGradient>
<linearGradient id="paint3_linear_52_1093" x1="204.344" y1="232.742" x2="196.859" y2="253.43" gradientUnits="userSpaceOnUse">
<stop stop-color="#C4F0F4"/>
<stop offset="1" stop-color="#0057FF"/>
</linearGradient>
<linearGradient id="paint4_linear_52_1093" x1="154.339" y1="264.756" x2="146.826" y2="285.434" gradientUnits="userSpaceOnUse">
<stop stop-color="#C4F0F4"/>
<stop offset="1" stop-color="#0057FF"/>
</linearGradient>
<linearGradient id="paint5_linear_52_1093" x1="183.339" y1="264.756" x2="175.826" y2="285.434" gradientUnits="userSpaceOnUse">
<stop stop-color="#C4F0F4"/>
<stop offset="1" stop-color="#0057FF"/>
</linearGradient>
</defs>
</svg>
