<svg width="340" height="340" viewBox="0 0 340 340" fill="none" xmlns="http://www.w3.org/2000/svg">
<path d="M150.523 240.551L155 211H183L177.888 232.3C177.435 234.186 178.865 236 180.805 236H183.424C185.814 236 187.244 238.659 185.927 240.653L154 289L164.994 247.773C165.502 245.868 164.066 244 162.095 244H153.489C151.653 244 150.248 242.366 150.523 240.551Z" fill="url(#paint0_linear_52_1090)"/>
<g filter="url(#filter0_bdi_52_1090)">
<path fill-rule="evenodd" clip-rule="evenodd" d="M228 211H106V210.989C105.668 210.996 105.334 211 105 211C80.1472 211 60 190.853 60 166C60 149.134 69.2787 134.435 83.0099 126.73C83.0033 126.321 83 125.911 83 125.5C83 84.3548 116.355 51 157.5 51C192.991 51 222.686 75.8177 230.177 109.046C257.334 110.186 279 132.563 279 160C279 186.82 258.297 208.805 232 210.845V211H228Z" fill="url(#paint1_radial_52_1090)" fill-opacity="0.77"/>
</g>
<g style="mix-blend-mode:soft-light" filter="url(#filter1_di_52_1090)">
<circle cx="105" cy="166" r="45" fill="#848484"/>
</g>
<mask id="mask0_52_1090" style="mask-type:alpha" maskUnits="userSpaceOnUse" x="60" y="51" width="219" height="160">
<path fill-rule="evenodd" clip-rule="evenodd" d="M228 211H106V210.989C105.668 210.996 105.334 211 105 211C80.1472 211 60 190.853 60 166C60 149.134 69.2787 134.435 83.0099 126.73C83.0033 126.321 83 125.911 83 125.5C83 84.3548 116.355 51 157.5 51C192.991 51 222.686 75.8177 230.177 109.046C257.334 110.186 279 132.563 279 160C279 186.137 259.339 207.681 234 210.651V211H228Z" fill="url(#paint2_radial_52_1090)" fill-opacity="0.77"/>
</mask>
<g mask="url(#mask0_52_1090)">
<g filter="url(#filter2_f_52_1090)">
<path d="M167 173C140.544 192.479 116.514 206.005 101 211H238C221.343 211 186.189 184.55 167 173Z" fill="url(#paint3_radial_52_1090)"/>
</g>
<g style="mix-blend-mode:screen" filter="url(#filter3_f_52_1090)">
<path d="M173 156C156.284 165.573 132.802 210.545 123 213H223C212.475 213 185.124 161.677 173 156Z" fill="url(#paint4_linear_52_1090)"/>
</g>
<g style="mix-blend-mode:screen" filter="url(#filter4_f_52_1090)">
<path d="M168 168C156.781 174.402 140.579 211.358 134 213L201 211C193.936 211 176.137 171.796 168 168Z" fill="url(#paint5_linear_52_1090)"/>
</g>
</g>
<path d="M123.069 221.91C124.003 221.025 125.546 221.587 125.694 222.865L126.892 233.271C127.47 238.292 122.562 242.165 117.813 240.437C113.064 238.708 111.794 232.586 115.464 229.111L123.069 221.91Z" fill="url(#paint6_linear_52_1090)"/>
<path d="M139.335 253.373C140.185 252.568 141.588 253.079 141.721 254.241L142.81 263.701C143.336 268.265 138.875 271.787 134.558 270.215C130.24 268.643 129.086 263.078 132.422 259.919L139.335 253.373Z" fill="url(#paint7_linear_52_1090)"/>
<defs>
<filter id="filter0_bdi_52_1090" x="28" y="35" width="283" height="224" filterUnits="userSpaceOnUse" color-interpolation-filters="sRGB">
<feFlood flood-opacity="0" result="BackgroundImageFix"/>
<feGaussianBlur in="BackgroundImageFix" stdDeviation="8"/>
<feComposite in2="SourceAlpha" operator="in" result="effect1_backgroundBlur_52_1090"/>
<feColorMatrix in="SourceAlpha" type="matrix" values="0 0 0 0 0 0 0 0 0 0 0 0 0 0 0 0 0 0 127 0" result="hardAlpha"/>
<feOffset dy="16"/>
<feGaussianBlur stdDeviation="16"/>
<feColorMatrix type="matrix" values="0 0 0 0 0.0313726 0 0 0 0 0.129412 0 0 0 0 0.219608 0 0 0 0.2 0"/>
<feBlend mode="normal" in2="effect1_backgroundBlur_52_1090" result="effect2_dropShadow_52_1090"/>
<feBlend mode="normal" in="SourceGraphic" in2="effect2_dropShadow_52_1090" result="shape"/>
<feColorMatrix in="SourceAlpha" type="matrix" values="0 0 0 0 0 0 0 0 0 0 0 0 0 0 0 0 0 0 127 0" result="hardAlpha"/>
<feOffset dx="1" dy="2"/>
<feGaussianBlur stdDeviation="7"/>
<feComposite in2="hardAlpha" operator="arithmetic" k2="-1" k3="1"/>
<feColorMatrix type="matrix" values="0 0 0 0 0.0761458 0 0 0 0 0.185885 0 0 0 0 0.358333 0 0 0 1 0"/>
<feBlend mode="normal" in2="shape" result="effect3_innerShadow_52_1090"/>
</filter>
<filter id="filter1_di_52_1090" x="52" y="105" width="120" height="118" filterUnits="userSpaceOnUse" color-interpolation-filters="sRGB">
<feFlood flood-opacity="0" result="BackgroundImageFix"/>
<feColorMatrix in="SourceAlpha" type="matrix" values="0 0 0 0 0 0 0 0 0 0 0 0 0 0 0 0 0 0 127 0" result="hardAlpha"/>
<feOffset dx="-2" dy="-10"/>
<feGaussianBlur stdDeviation="3"/>
<feColorMatrix type="matrix" values="0 0 0 0 0 0 0 0 0 0 0 0 0 0 0 0 0 0 0.22 0"/>
<feBlend mode="normal" in2="BackgroundImageFix" result="effect1_dropShadow_52_1090"/>
<feBlend mode="normal" in="SourceGraphic" in2="effect1_dropShadow_52_1090" result="shape"/>
<feColorMatrix in="SourceAlpha" type="matrix" values="0 0 0 0 0 0 0 0 0 0 0 0 0 0 0 0 0 0 127 0" result="hardAlpha"/>
<feOffset dx="22" dy="12"/>
<feGaussianBlur stdDeviation="11"/>
<feComposite in2="hardAlpha" operator="arithmetic" k2="-1" k3="1"/>
<feColorMatrix type="matrix" values="0 0 0 0 1 0 0 0 0 1 0 0 0 0 1 0 0 0 0.74 0"/>
<feBlend mode="normal" in2="shape" result="effect2_innerShadow_52_1090"/>
</filter>
<filter id="filter2_f_52_1090" x="93" y="165" width="153" height="54" filterUnits="userSpaceOnUse" color-interpolation-filters="sRGB">
<feFlood flood-opacity="0" result="BackgroundImageFix"/>
<feBlend mode="normal" in="SourceGraphic" in2="BackgroundImageFix" result="shape"/>
<feGaussianBlur stdDeviation="4" result="effect1_foregroundBlur_52_1090"/>
</filter>
<filter id="filter3_f_52_1090" x="119" y="152" width="108" height="65" filterUnits="userSpaceOnUse" color-interpolation-filters="sRGB">
<feFlood flood-opacity="0" result="BackgroundImageFix"/>
<feBlend mode="normal" in="SourceGraphic" in2="BackgroundImageFix" result="shape"/>
<feGaussianBlur stdDeviation="2" result="effect1_foregroundBlur_52_1090"/>
</filter>
<filter id="filter4_f_52_1090" x="130" y="164" width="75" height="53" filterUnits="userSpaceOnUse" color-interpolation-filters="sRGB">
<feFlood flood-opacity="0" result="BackgroundImageFix"/>
<feBlend mode="normal" in="SourceGraphic" in2="BackgroundImageFix" result="shape"/>
<feGaussianBlur stdDeviation="2" result="effect1_foregroundBlur_52_1090"/>
</filter>
<linearGradient id="paint0_linear_52_1090" x1="169" y1="196" x2="159.5" y2="260" gradientUnits="userSpaceOnUse">
<stop stop-color="#D601FA"/>
<stop offset="1" stop-color="#FAC301"/>
</linearGradient>
<radialGradient id="paint1_radial_52_1090" cx="0" cy="0" r="1" gradientUnits="userSpaceOnUse" gradientTransform="translate(137.164 85.1144) rotate(90.6693) scale(125.829 143.587)">
<stop offset="0.015625" stop-color="#27364E"/>
<stop offset="1"/>
</radialGradient>
<radialGradient id="paint2_radial_52_1090" cx="0" cy="0" r="1" gradientUnits="userSpaceOnUse" gradientTransform="translate(137.164 85.1144) rotate(90.6693) scale(125.829 143.587)">
<stop stop-color="white"/>
<stop offset="1" stop-color="#99CEFF"/>
</radialGradient>
<radialGradient id="paint3_radial_52_1090" cx="0" cy="0" r="1" gradientUnits="userSpaceOnUse" gradientTransform="translate(179.889 206.786) rotate(-90) scale(21.5393 111.274)">
<stop stop-color="#D601FA"/>
<stop offset="1" stop-color="#D601FA" stop-opacity="0"/>
</radialGradient>
<linearGradient id="paint4_linear_52_1090" x1="175.688" y1="211.888" x2="175.688" y2="204.542" gradientUnits="userSpaceOnUse">
<stop stop-color="#D601FA"/>
<stop offset="1" stop-color="#D601FA" stop-opacity="0"/>
</linearGradient>
<linearGradient id="paint5_linear_52_1090" x1="169.361" y1="212.224" x2="169.361" y2="202.077" gradientUnits="userSpaceOnUse">
<stop stop-color="#D601FA"/>
<stop offset="1" stop-color="#D601FA" stop-opacity="0"/>
</linearGradient>
<linearGradient id="paint6_linear_52_1090" x1="125.336" y1="219.763" x2="117.811" y2="240.436" gradientUnits="userSpaceOnUse">
<stop stop-color="#C4F0F4"/>
<stop offset="1" stop-color="#0057FF"/>
</linearGradient>
<linearGradient id="paint7_linear_52_1090" x1="141.397" y1="251.421" x2="134.555" y2="270.214" gradientUnits="userSpaceOnUse">
<stop stop-color="#C4F0F4"/>
<stop offset="1" stop-color="#0057FF"/>
</linearGradient>
</defs>
</svg>
