<svg width="340" height="340" viewBox="0 0 340 340" fill="none" xmlns="http://www.w3.org/2000/svg">
<g filter="url(#filter0_bdi_52_1091)">
<path fill-rule="evenodd" clip-rule="evenodd" d="M231.461 217H109.461V216.989C109.128 216.996 108.795 217 108.461 217C83.6081 217 63.4609 196.853 63.4609 172C63.4609 155.134 72.7396 140.435 86.4709 132.73C86.4643 132.321 86.4609 131.911 86.4609 131.5C86.4609 90.3548 119.816 57 160.961 57C196.452 57 226.147 81.8177 233.638 115.046C260.795 116.186 282.461 138.563 282.461 166C282.461 192.82 261.758 214.805 235.461 216.845V217H231.461Z" fill="url(#paint0_radial_52_1091)" fill-opacity="0.77"/>
</g>
<g style="mix-blend-mode:soft-light" filter="url(#filter1_di_52_1091)">
<circle cx="108.461" cy="172" r="45" fill="#848484"/>
</g>
<path fill-rule="evenodd" clip-rule="evenodd" d="M203.688 250.591C204.567 251.47 205.991 251.47 206.87 250.591C207.749 249.712 207.749 248.288 206.87 247.409L197.711 238.25L207.461 238.25C208.704 238.25 209.711 237.243 209.711 236C209.711 234.757 208.704 233.75 207.461 233.75L193.211 233.75L190.711 231.25H192.461C193.704 231.25 194.711 230.243 194.711 229C194.711 227.757 193.704 226.75 192.461 226.75L186.211 226.75L178.961 219.5L188.779 219.5L192.87 223.591C193.749 224.47 195.173 224.47 196.052 223.591C196.931 222.712 196.931 221.288 196.052 220.409L195.143 219.5H199.866L209.947 228.665C210.867 229.501 212.29 229.433 213.126 228.514C213.962 227.594 213.894 226.171 212.974 225.335L206.556 219.5L218.211 219.5C219.454 219.5 220.461 218.493 220.461 217.25C220.461 216.007 219.454 215 218.211 215L205.643 215L213.052 207.591C213.931 206.712 213.931 205.288 213.052 204.409C212.173 203.53 210.749 203.53 209.87 204.409L199.279 215H194.643L196.052 213.591C196.931 212.712 196.931 211.288 196.052 210.409C195.173 209.53 193.749 209.53 192.87 210.409L188.279 215L177.825 215L186.504 206.321H192.532C193.775 206.321 194.782 205.314 194.782 204.071C194.782 202.828 193.775 201.821 192.532 201.821L191.004 201.821L193.044 199.781L207.417 199.097C208.658 199.038 209.617 197.983 209.558 196.742C209.499 195.501 208.444 194.543 207.203 194.602L197.774 195.051L207.052 185.773C207.931 184.894 207.931 183.47 207.052 182.591C206.173 181.712 204.749 181.712 203.87 182.591L194.711 191.75V182C194.711 180.757 193.704 179.75 192.461 179.75C191.218 179.75 190.211 180.757 190.211 182L190.211 196.25L187.711 198.75V197C187.711 195.757 186.704 194.75 185.461 194.75C184.218 194.75 183.211 195.757 183.211 197L183.211 203.25L175.961 210.5V200.682L180.052 196.591C180.931 195.712 180.931 194.288 180.052 193.409C179.173 192.53 177.749 192.53 176.87 193.409L175.961 194.318V189.595L185.126 179.514C185.962 178.594 185.894 177.171 184.974 176.335C184.055 175.499 182.632 175.567 181.796 176.486L175.961 182.905L175.961 171.25C175.961 170.007 174.954 169 173.711 169C172.468 169 171.461 170.007 171.461 171.25L171.461 183.818L164.052 176.409C163.173 175.53 161.749 175.53 160.87 176.409C159.991 177.288 159.991 178.712 160.87 179.591L171.461 190.182V194.818L170.052 193.409C169.173 192.53 167.749 192.53 166.87 193.409C165.991 194.288 165.991 195.712 166.87 196.591L171.461 201.182L171.461 212L159.782 200.321L159.782 193.929C159.782 192.686 158.775 191.679 157.532 191.679C156.289 191.679 155.282 192.686 155.282 193.929V195.821L153.31 193.849L152.558 178.044C152.499 176.803 151.444 175.844 150.203 175.903C148.962 175.962 148.004 177.017 148.063 178.258L148.58 189.119L142.877 183.416C141.998 182.537 140.573 182.537 139.695 183.416C138.816 184.295 138.816 185.719 139.695 186.598L143.847 190.75L135.461 190.75C134.218 190.75 133.211 191.757 133.211 193C133.211 194.243 134.218 195.25 135.461 195.25H148.347L151.847 198.75L150.461 198.75C149.218 198.75 148.211 199.757 148.211 201C148.211 202.243 149.218 203.25 150.461 203.25H156.347L168.097 215L152.643 215L147.052 209.409C146.173 208.53 144.749 208.53 143.87 209.409C142.991 210.288 142.991 211.712 143.87 212.591L146.279 215H142.706L130.974 204.335C130.055 203.499 128.632 203.567 127.796 204.486C126.96 205.406 127.028 206.829 127.947 207.665L136.016 215H127.711C126.468 215 125.461 216.007 125.461 217.25C125.461 218.493 126.468 219.5 127.711 219.5H133.779L127.87 225.409C126.991 226.288 126.991 227.712 127.87 228.591C128.749 229.47 130.173 229.47 131.052 228.591L140.143 219.5H143.784C142.992 220.383 143.021 221.742 143.87 222.591C144.749 223.47 146.173 223.47 147.052 222.591L150.143 219.5L166.961 219.5L156.782 229.679H150.39C149.147 229.679 148.14 230.686 148.14 231.929C148.14 233.172 149.147 234.179 150.39 234.179L152.282 234.179L150.31 236.151L134.505 236.903C133.263 236.962 132.305 238.017 132.364 239.258C132.423 240.499 133.477 241.457 134.719 241.398L145.58 240.881L139.877 246.584C138.998 247.463 138.998 248.887 139.877 249.766C140.755 250.645 142.18 250.645 143.059 249.766L147.211 245.614V254C147.211 255.243 148.218 256.25 149.461 256.25C150.704 256.25 151.711 255.243 151.711 254L151.711 241.114L155.211 237.614V239C155.211 240.243 156.218 241.25 157.461 241.25C158.704 241.25 159.711 240.243 159.711 239L159.711 233.114L171.461 221.364V236.818L165.87 242.409C164.991 243.288 164.991 244.712 165.87 245.591C166.749 246.47 168.173 246.47 169.052 245.591L171.461 243.182L171.461 246.755L160.796 258.486C159.96 259.406 160.028 260.829 160.947 261.665C161.867 262.501 163.29 262.433 164.126 261.514L171.461 253.445V261.75C171.461 262.993 172.468 264 173.711 264C174.954 264 175.961 262.993 175.961 261.75L175.961 255.682L181.87 261.591C182.749 262.47 184.173 262.47 185.052 261.591C185.931 260.712 185.931 259.288 185.052 258.409L175.961 249.318L175.961 245.677C176.844 246.469 178.203 246.44 179.052 245.591C179.931 244.712 179.931 243.288 179.052 242.409L175.961 239.318L175.961 222.864L183.14 230.043V236.071C183.14 237.314 184.147 238.321 185.39 238.321C186.633 238.321 187.64 237.314 187.64 236.071V234.543L189.68 236.583L190.364 250.956C190.423 252.198 191.477 253.156 192.719 253.097C193.96 253.038 194.918 251.983 194.859 250.742L194.41 241.313L203.688 250.591Z" fill="url(#paint1_radial_52_1091)"/>
<path fill-rule="evenodd" clip-rule="evenodd" d="M276.344 221.56C276.696 221.912 277.267 221.912 277.619 221.56C277.971 221.208 277.971 220.638 277.619 220.286L273.95 216.617H277.855C278.353 216.617 278.757 216.214 278.757 215.716C278.757 215.218 278.353 214.815 277.855 214.815L272.148 214.815L271.147 213.814H271.847C272.345 213.814 272.749 213.41 272.749 212.912C272.749 212.415 272.345 212.011 271.847 212.011H269.344L266.44 209.107L270.373 209.107L272.011 210.746C272.363 211.098 272.934 211.098 273.286 210.746C273.638 210.394 273.638 209.823 273.286 209.471L272.922 209.107H274.813L278.851 212.778C279.22 213.113 279.79 213.086 280.124 212.718C280.459 212.349 280.432 211.779 280.064 211.445L277.493 209.107L282.161 209.107C282.659 209.107 283.062 208.704 283.062 208.206C283.062 207.708 282.659 207.305 282.161 207.305L277.127 207.305L280.095 204.337C280.447 203.985 280.447 203.415 280.095 203.063C279.743 202.711 279.172 202.711 278.82 203.063L274.578 207.305H272.721L273.286 206.741C273.638 206.389 273.638 205.818 273.286 205.466C272.934 205.114 272.363 205.114 272.011 205.466L270.172 207.305H265.985L269.461 203.829L271.876 203.829C272.374 203.829 272.777 203.425 272.777 202.928C272.777 202.43 272.374 202.026 271.876 202.026H271.264L272.081 201.209L277.838 200.935C278.335 200.911 278.719 200.489 278.695 199.992C278.672 199.495 278.249 199.111 277.752 199.135L273.976 199.315L277.692 195.599C278.044 195.247 278.044 194.676 277.692 194.324C277.34 193.972 276.769 193.972 276.417 194.324L272.749 197.993L272.749 194.087C272.749 193.59 272.345 193.186 271.847 193.186C271.35 193.186 270.946 193.59 270.946 194.087L270.946 199.795L269.945 200.796V200.095C269.945 199.598 269.541 199.194 269.044 199.194C268.546 199.194 268.143 199.598 268.143 200.095V202.599L265.239 205.503L265.239 201.57L266.877 199.932C267.229 199.58 267.229 199.009 266.877 198.657C266.525 198.305 265.955 198.305 265.603 198.657L265.239 199.021V197.129L268.909 193.091C269.244 192.723 269.217 192.153 268.849 191.818C268.481 191.484 267.911 191.511 267.576 191.879L265.239 194.45L265.239 189.782C265.239 189.284 264.835 188.88 264.337 188.88C263.84 188.88 263.436 189.284 263.436 189.782L263.436 194.815L260.469 191.848C260.117 191.496 259.546 191.496 259.194 191.848C258.842 192.2 258.842 192.77 259.194 193.122L263.436 197.364V199.221L262.872 198.657C262.52 198.305 261.949 198.305 261.597 198.657C261.245 199.009 261.245 199.58 261.597 199.932L263.436 201.77L263.436 206.103L258.758 201.426L258.758 198.865C258.758 198.368 258.355 197.964 257.857 197.964C257.359 197.964 256.956 198.368 256.956 198.865V199.623L256.166 198.833L255.865 192.503C255.841 192.006 255.419 191.622 254.922 191.645C254.425 191.669 254.041 192.091 254.064 192.588L254.272 196.939L251.987 194.654C251.635 194.302 251.065 194.302 250.713 194.654C250.361 195.006 250.361 195.577 250.713 195.929L252.376 197.592L249.017 197.592C248.519 197.592 248.116 197.995 248.116 198.493C248.116 198.991 248.519 199.394 249.017 199.394L254.178 199.394L255.58 200.796H255.025C254.527 200.796 254.124 201.2 254.124 201.697C254.124 202.195 254.527 202.599 255.025 202.599L257.383 202.599L262.089 207.305L255.899 207.305L253.66 205.066C253.308 204.714 252.737 204.714 252.385 205.066C252.033 205.418 252.033 205.988 252.385 206.34L253.35 207.305H251.919L247.22 203.033C246.852 202.699 246.282 202.726 245.947 203.094C245.612 203.462 245.639 204.032 246.008 204.367L249.239 207.305L245.913 207.305C245.415 207.305 245.012 207.708 245.012 208.206C245.012 208.704 245.415 209.107 245.913 209.107L248.343 209.107L245.976 211.474C245.625 211.826 245.625 212.397 245.976 212.749C246.328 213.101 246.899 213.101 247.251 212.749L250.892 209.107L252.351 209.107C252.034 209.461 252.045 210.005 252.385 210.345C252.737 210.697 253.308 210.697 253.66 210.345L254.898 209.107H261.634L257.557 213.184L254.997 213.184C254.499 213.184 254.095 213.588 254.095 214.086C254.095 214.583 254.499 214.987 254.997 214.987H255.754L254.965 215.777L248.634 216.078C248.137 216.102 247.753 216.524 247.777 217.021C247.8 217.518 248.223 217.902 248.72 217.878L253.07 217.671L250.786 219.956C250.434 220.307 250.434 220.878 250.786 221.23C251.138 221.582 251.708 221.582 252.06 221.23L253.723 219.567L253.723 222.926C253.723 223.424 254.127 223.827 254.624 223.827C255.122 223.827 255.526 223.424 255.526 222.926L255.526 217.765L256.928 216.363V216.918C256.928 217.416 257.331 217.819 257.829 217.819C258.326 217.819 258.73 217.416 258.73 216.918L258.73 214.56L263.436 209.854V216.044L261.197 218.283C260.845 218.635 260.845 219.206 261.197 219.558C261.549 219.91 262.119 219.91 262.471 219.558L263.436 218.593V220.024L259.165 224.723C258.83 225.091 258.857 225.661 259.225 225.996C259.593 226.331 260.163 226.304 260.498 225.935L263.436 222.704L263.436 226.03C263.436 226.528 263.84 226.931 264.337 226.931C264.835 226.931 265.239 226.528 265.239 226.03L265.239 223.6L267.605 225.966C267.957 226.318 268.528 226.318 268.88 225.966C269.232 225.614 269.232 225.044 268.88 224.692L265.239 221.051V219.592C265.592 219.909 266.137 219.898 266.477 219.558C266.829 219.206 266.829 218.635 266.477 218.283L265.239 217.045V210.455L268.114 213.33V215.745C268.114 216.242 268.518 216.646 269.015 216.646C269.513 216.646 269.916 216.242 269.916 215.745V215.133L270.734 215.95L271.008 221.707C271.031 222.204 271.454 222.588 271.951 222.564C272.448 222.54 272.832 222.118 272.808 221.621L272.628 217.844L276.344 221.56Z" fill="url(#paint2_radial_52_1091)"/>
<path fill-rule="evenodd" clip-rule="evenodd" d="M90.1307 148.444C90.503 148.816 91.1066 148.816 91.4789 148.444C91.8512 148.072 91.8512 147.468 91.4789 147.096L87.5983 143.215L91.7293 143.215C92.2558 143.215 92.6826 142.788 92.6826 142.262C92.6826 141.735 92.2558 141.309 91.7293 141.309L85.6917 141.309L84.6325 140.249H85.374C85.9005 140.249 86.3273 139.823 86.3273 139.296C86.3273 138.77 85.9005 138.343 85.374 138.343L82.7259 138.343L79.6542 135.271L83.814 135.271L85.5473 137.004C85.9196 137.377 86.5232 137.377 86.8954 137.004C87.2677 136.632 87.2677 136.028 86.8954 135.656L86.5103 135.271H88.5115L92.7828 139.154C93.1724 139.508 93.7753 139.48 94.1294 139.09C94.4836 138.7 94.4549 138.097 94.0653 137.743L91.3458 135.271L96.2839 135.271C96.8104 135.271 97.2372 134.844 97.2372 134.318C97.2372 133.791 96.8104 133.364 96.284 133.364H90.959L94.0981 130.225C94.4704 129.853 94.4704 129.249 94.0981 128.877C93.7259 128.505 93.1223 128.505 92.75 128.877L88.2627 133.364H86.2985L86.8954 132.767C87.2677 132.395 87.2677 131.792 86.8954 131.419C86.5232 131.047 85.9196 131.047 85.5473 131.419L83.6021 133.364H79.1729L82.85 129.687H85.4041C85.9306 129.687 86.3574 129.26 86.3574 128.734C86.3574 128.208 85.9306 127.781 85.4041 127.781L84.7566 127.781L85.6209 126.916L91.7108 126.626C92.2367 126.601 92.6427 126.155 92.6176 125.629C92.5926 125.103 92.146 124.697 91.6201 124.722L87.6251 124.912L91.556 120.981C91.9283 120.609 91.9283 120.005 91.556 119.633C91.1837 119.261 90.5801 119.261 90.2078 119.633L86.3273 123.514L86.3273 119.383C86.3273 118.856 85.9005 118.429 85.374 118.429C84.8475 118.429 84.4207 118.856 84.4207 119.383V125.42L83.3615 126.48V125.738C83.3615 125.212 82.9347 124.785 82.4082 124.785C81.8817 124.785 81.4549 125.212 81.4549 125.738L81.4549 128.386L78.3831 131.458L78.3831 127.298L80.1164 125.565C80.4887 125.192 80.4887 124.589 80.1164 124.217C79.7442 123.844 79.1406 123.844 78.7683 124.217L78.3831 124.602V122.601L82.2662 118.329C82.6203 117.94 82.5916 117.337 82.202 116.983C81.8125 116.628 81.2096 116.657 80.8554 117.047L78.3831 119.766L78.3831 114.828C78.3831 114.302 77.9563 113.875 77.4298 113.875C76.9034 113.875 76.4765 114.302 76.4765 114.828L76.4765 120.153L73.3374 117.014C72.9651 116.642 72.3615 116.642 71.9893 117.014C71.617 117.386 71.617 117.99 71.9893 118.362L76.4765 122.849V124.814L75.8796 124.217C75.5073 123.844 74.9037 123.844 74.5314 124.217C74.1591 124.589 74.1591 125.192 74.5314 125.565L76.4765 127.51V132.093L71.5283 127.145V124.437C71.5283 123.91 71.1015 123.484 70.575 123.484C70.0485 123.484 69.6217 123.91 69.6217 124.437V125.239L68.7863 124.403L68.4674 117.707C68.4424 117.181 67.9958 116.775 67.4699 116.8C66.944 116.825 66.538 117.271 66.563 117.797L66.7821 122.399L64.3658 119.983C63.9935 119.61 63.3899 119.61 63.0176 119.983C62.6453 120.355 62.6453 120.959 63.0176 121.331L64.7768 123.09H61.2238C60.6973 123.09 60.2705 123.517 60.2705 124.043C60.2705 124.57 60.6973 124.997 61.2238 124.997L66.6834 124.997L68.1663 126.48L67.5791 126.48C67.0526 126.48 66.6258 126.906 66.6258 127.433C66.6258 127.959 67.0526 128.386 67.5791 128.386H70.0729L75.0513 133.364L68.5036 133.364L66.1347 130.996C65.7625 130.623 65.1589 130.623 64.7866 130.996C64.4143 131.368 64.4143 131.972 64.7866 132.344L65.8072 133.364H64.2933L59.3229 128.846C58.9333 128.492 58.3304 128.52 57.9763 128.91C57.6221 129.3 57.6508 129.903 58.0404 130.257L61.459 133.364H57.9402C57.4137 133.364 56.9869 133.791 56.9869 134.318C56.9869 134.844 57.4137 135.271 57.9402 135.271L60.5111 135.271L58.0076 137.775C57.6353 138.147 57.6353 138.751 58.0076 139.123C58.3798 139.495 58.9834 139.495 59.3557 139.123L63.2075 135.271H64.7501C64.4147 135.645 64.4269 136.221 64.7866 136.581C65.1589 136.953 65.7625 136.953 66.1347 136.581L67.4444 135.271L74.5699 135.271L70.2572 139.584H67.549C67.0225 139.584 66.5957 140.011 66.5957 140.537C66.5957 141.064 67.0225 141.49 67.549 141.49H68.3506L67.5152 142.326L60.8186 142.645C60.2927 142.67 59.8867 143.116 59.9117 143.642C59.9368 144.168 60.3834 144.574 60.9093 144.549L65.511 144.33L63.0947 146.746C62.7224 147.119 62.7224 147.722 63.0947 148.094C63.467 148.467 64.0706 148.467 64.4429 148.094L66.2021 146.335V149.888C66.2021 150.415 66.6289 150.842 67.1554 150.842C67.6819 150.842 68.1087 150.415 68.1087 149.888L68.1087 144.429L69.5916 142.946L69.5916 143.533C69.5916 144.059 70.0184 144.486 70.5449 144.486C71.0714 144.486 71.4982 144.059 71.4982 143.533V141.039L76.4765 136.061L76.4765 142.608L74.1077 144.977C73.7354 145.35 73.7354 145.953 74.1077 146.325C74.48 146.698 75.0836 146.698 75.4559 146.325L76.4765 145.305V146.819L71.958 151.789C71.6038 152.179 71.6325 152.782 72.0221 153.136C72.4117 153.49 73.0146 153.461 73.3687 153.072L76.4765 149.653L76.4765 153.172C76.4765 153.698 76.9033 154.125 77.4298 154.125C77.9563 154.125 78.3831 153.698 78.3831 153.172L78.3831 150.601L80.8867 153.104C81.259 153.477 81.8626 153.477 82.2349 153.104C82.6072 152.732 82.6072 152.129 82.2349 151.756L78.3831 147.905L78.3831 146.362C78.7574 146.697 79.3331 146.685 79.6927 146.325C80.065 145.953 80.065 145.35 79.6927 144.977L78.3831 143.668L78.3831 136.696L81.4248 139.738L81.4248 142.292C81.4248 142.819 81.8516 143.245 82.3781 143.245C82.9045 143.245 83.3314 142.819 83.3314 142.292L83.3314 141.645L84.1956 142.509L84.4856 148.599C84.5107 149.125 84.9573 149.531 85.4832 149.506C86.0091 149.481 86.4151 149.034 86.3901 148.508L86.1998 144.513L90.1307 148.444Z" fill="url(#paint3_radial_52_1091)"/>
<defs>
<filter id="filter0_bdi_52_1091" x="31.4609" y="41" width="283" height="224" filterUnits="userSpaceOnUse" color-interpolation-filters="sRGB">
<feFlood flood-opacity="0" result="BackgroundImageFix"/>
<feGaussianBlur in="BackgroundImageFix" stdDeviation="8"/>
<feComposite in2="SourceAlpha" operator="in" result="effect1_backgroundBlur_52_1091"/>
<feColorMatrix in="SourceAlpha" type="matrix" values="0 0 0 0 0 0 0 0 0 0 0 0 0 0 0 0 0 0 127 0" result="hardAlpha"/>
<feOffset dy="16"/>
<feGaussianBlur stdDeviation="16"/>
<feColorMatrix type="matrix" values="0 0 0 0 0.0313726 0 0 0 0 0.129412 0 0 0 0 0.219608 0 0 0 0.2 0"/>
<feBlend mode="normal" in2="effect1_backgroundBlur_52_1091" result="effect2_dropShadow_52_1091"/>
<feBlend mode="normal" in="SourceGraphic" in2="effect2_dropShadow_52_1091" result="shape"/>
<feColorMatrix in="SourceAlpha" type="matrix" values="0 0 0 0 0 0 0 0 0 0 0 0 0 0 0 0 0 0 127 0" result="hardAlpha"/>
<feOffset dx="1" dy="2"/>
<feGaussianBlur stdDeviation="7"/>
<feComposite in2="hardAlpha" operator="arithmetic" k2="-1" k3="1"/>
<feColorMatrix type="matrix" values="0 0 0 0 0.0761458 0 0 0 0 0.185885 0 0 0 0 0.358333 0 0 0 1 0"/>
<feBlend mode="normal" in2="shape" result="effect3_innerShadow_52_1091"/>
</filter>
<filter id="filter1_di_52_1091" x="55.4609" y="111" width="120" height="118" filterUnits="userSpaceOnUse" color-interpolation-filters="sRGB">
<feFlood flood-opacity="0" result="BackgroundImageFix"/>
<feColorMatrix in="SourceAlpha" type="matrix" values="0 0 0 0 0 0 0 0 0 0 0 0 0 0 0 0 0 0 127 0" result="hardAlpha"/>
<feOffset dx="-2" dy="-10"/>
<feGaussianBlur stdDeviation="3"/>
<feColorMatrix type="matrix" values="0 0 0 0 0 0 0 0 0 0 0 0 0 0 0 0 0 0 0.22 0"/>
<feBlend mode="normal" in2="BackgroundImageFix" result="effect1_dropShadow_52_1091"/>
<feBlend mode="normal" in="SourceGraphic" in2="effect1_dropShadow_52_1091" result="shape"/>
<feColorMatrix in="SourceAlpha" type="matrix" values="0 0 0 0 0 0 0 0 0 0 0 0 0 0 0 0 0 0 127 0" result="hardAlpha"/>
<feOffset dx="22" dy="12"/>
<feGaussianBlur stdDeviation="11"/>
<feComposite in2="hardAlpha" operator="arithmetic" k2="-1" k3="1"/>
<feColorMatrix type="matrix" values="0 0 0 0 1 0 0 0 0 1 0 0 0 0 1 0 0 0 0.74 0"/>
<feBlend mode="normal" in2="shape" result="effect2_innerShadow_52_1091"/>
</filter>
<radialGradient id="paint0_radial_52_1091" cx="0" cy="0" r="1" gradientUnits="userSpaceOnUse" gradientTransform="translate(140.625 91.1144) rotate(90.6693) scale(125.829 143.587)">
<stop offset="0.015625" stop-color="#27364E"/>
<stop offset="1"/>
</radialGradient>
<radialGradient id="paint1_radial_52_1091" cx="0" cy="0" r="1" gradientUnits="userSpaceOnUse" gradientTransform="translate(173.461 214) rotate(90) scale(49 98)">
<stop stop-color="#7FDFF4"/>
<stop offset="1" stop-color="#0C43BF"/>
</radialGradient>
<radialGradient id="paint2_radial_52_1091" cx="0" cy="0" r="1" gradientUnits="userSpaceOnUse" gradientTransform="translate(264.237 206.904) rotate(90) scale(19.6262 39.2525)">
<stop stop-color="#7FDFF4"/>
<stop offset="1" stop-color="#0C43BF"/>
</radialGradient>
<radialGradient id="paint3_radial_52_1091" cx="0" cy="0" r="1" gradientUnits="userSpaceOnUse" gradientTransform="translate(77.3239 132.941) rotate(90) scale(20.7607 41.5214)">
<stop stop-color="#7FDFF4"/>
<stop offset="1" stop-color="#0C43BF"/>
</radialGradient>
</defs>
</svg>
