<svg width="340" height="340" viewBox="0 0 340 340" fill="none" xmlns="http://www.w3.org/2000/svg">
<g filter="url(#filter0_i_52_1092)">
<path fill-rule="evenodd" clip-rule="evenodd" d="M295 140.124C285.712 144.312 275.399 146.644 264.538 146.644C223.727 146.644 190.643 113.715 190.643 73.0959C190.643 50.7612 200.646 30.7518 216.435 17.2631C214.123 17.0888 211.787 17 209.43 17C158.935 17 118 57.7421 118 108C118 158.258 158.935 199 209.43 199C248.564 199 281.955 174.53 295 140.124Z" fill="#4107E7"/>
</g>
<path d="M135.523 274.551L140 245H168L162.888 266.3C162.435 268.186 163.865 270 165.805 270H168.424C170.814 270 172.244 272.659 170.927 274.653L139 323L149.994 281.773C150.502 279.868 149.066 278 147.095 278H138.489C136.653 278 135.248 276.366 135.523 274.551Z" fill="url(#paint0_linear_52_1092)"/>
<mask id="mask0_52_1092" style="mask-type:alpha" maskUnits="userSpaceOnUse" x="45" y="85" width="219" height="160">
<path fill-rule="evenodd" clip-rule="evenodd" d="M91 244.989C90.6675 244.996 90.3342 245 90 245C65.1472 245 45 224.853 45 200C45 183.134 54.2787 168.435 68.0099 160.73C68.0033 160.321 68 159.911 68 159.5C68 118.355 101.355 85 142.5 85C177.991 85 207.686 109.818 215.177 143.046C242.334 144.186 264 166.563 264 194C264 222.167 241.167 245 213 245C211.654 245 210.32 244.948 209 244.845V245H91V244.989Z" fill="url(#paint1_radial_52_1092)" fill-opacity="0.77"/>
</mask>
<g mask="url(#mask0_52_1092)">
<g filter="url(#filter1_bdi_52_1092)">
<path fill-rule="evenodd" clip-rule="evenodd" d="M213 245H91V244.989C90.6675 244.996 90.3342 245 90 245C65.1472 245 45 224.853 45 200C45 183.134 54.2787 168.435 68.0099 160.73C68.0033 160.321 68 159.911 68 159.5C68 118.355 101.355 85 142.5 85C177.991 85 207.686 109.818 215.177 143.046C242.334 144.186 264 166.563 264 194C264 220.82 243.297 242.805 217 244.845V245H213Z" fill="url(#paint2_radial_52_1092)" fill-opacity="0.77"/>
</g>
<g style="mix-blend-mode:soft-light" filter="url(#filter2_di_52_1092)">
<circle cx="90" cy="200" r="45" fill="#848484"/>
</g>
<g filter="url(#filter3_f_52_1092)">
<path d="M152 207C125.544 226.479 101.514 240.005 86 245H223C206.343 245 171.189 218.55 152 207Z" fill="url(#paint3_radial_52_1092)"/>
</g>
<g style="mix-blend-mode:screen" filter="url(#filter4_f_52_1092)">
<path d="M158 190C141.284 199.573 117.802 244.545 108 247H208C197.475 247 170.124 195.677 158 190Z" fill="url(#paint4_linear_52_1092)"/>
</g>
<g style="mix-blend-mode:screen" filter="url(#filter5_f_52_1092)">
<path d="M153 202C141.781 208.402 125.579 245.358 119 247L186 245C178.936 245 161.137 205.796 153 202Z" fill="url(#paint5_linear_52_1092)"/>
</g>
</g>
<defs>
<filter id="filter0_i_52_1092" x="108" y="17" width="187" height="195" filterUnits="userSpaceOnUse" color-interpolation-filters="sRGB">
<feFlood flood-opacity="0" result="BackgroundImageFix"/>
<feBlend mode="normal" in="SourceGraphic" in2="BackgroundImageFix" result="shape"/>
<feColorMatrix in="SourceAlpha" type="matrix" values="0 0 0 0 0 0 0 0 0 0 0 0 0 0 0 0 0 0 127 0" result="hardAlpha"/>
<feOffset dx="-10" dy="13"/>
<feGaussianBlur stdDeviation="12"/>
<feComposite in2="hardAlpha" operator="arithmetic" k2="-1" k3="1"/>
<feColorMatrix type="matrix" values="0 0 0 0 0.98 0 0 0 0 0 0 0 0 0 1 0 0 0 0.9 0"/>
<feBlend mode="normal" in2="shape" result="effect1_innerShadow_52_1092"/>
</filter>
<filter id="filter1_bdi_52_1092" x="13" y="69" width="283" height="224" filterUnits="userSpaceOnUse" color-interpolation-filters="sRGB">
<feFlood flood-opacity="0" result="BackgroundImageFix"/>
<feGaussianBlur in="BackgroundImageFix" stdDeviation="8"/>
<feComposite in2="SourceAlpha" operator="in" result="effect1_backgroundBlur_52_1092"/>
<feColorMatrix in="SourceAlpha" type="matrix" values="0 0 0 0 0 0 0 0 0 0 0 0 0 0 0 0 0 0 127 0" result="hardAlpha"/>
<feOffset dy="16"/>
<feGaussianBlur stdDeviation="16"/>
<feColorMatrix type="matrix" values="0 0 0 0 0.385412 0 0 0 0 0.0627451 0 0 0 0 0.796078 0 0 0 0.12 0"/>
<feBlend mode="normal" in2="effect1_backgroundBlur_52_1092" result="effect2_dropShadow_52_1092"/>
<feBlend mode="normal" in="SourceGraphic" in2="effect2_dropShadow_52_1092" result="shape"/>
<feColorMatrix in="SourceAlpha" type="matrix" values="0 0 0 0 0 0 0 0 0 0 0 0 0 0 0 0 0 0 127 0" result="hardAlpha"/>
<feOffset dx="-2" dy="2"/>
<feGaussianBlur stdDeviation="7"/>
<feComposite in2="hardAlpha" operator="arithmetic" k2="-1" k3="1"/>
<feColorMatrix type="matrix" values="0 0 0 0 0.209569 0 0 0 0 0.0630035 0 0 0 0 0.795833 0 0 0 0.3 0"/>
<feBlend mode="normal" in2="shape" result="effect3_innerShadow_52_1092"/>
</filter>
<filter id="filter2_di_52_1092" x="37" y="139" width="120" height="118" filterUnits="userSpaceOnUse" color-interpolation-filters="sRGB">
<feFlood flood-opacity="0" result="BackgroundImageFix"/>
<feColorMatrix in="SourceAlpha" type="matrix" values="0 0 0 0 0 0 0 0 0 0 0 0 0 0 0 0 0 0 127 0" result="hardAlpha"/>
<feOffset dx="-2" dy="-10"/>
<feGaussianBlur stdDeviation="3"/>
<feColorMatrix type="matrix" values="0 0 0 0 0 0 0 0 0 0 0 0 0 0 0 0 0 0 0.22 0"/>
<feBlend mode="normal" in2="BackgroundImageFix" result="effect1_dropShadow_52_1092"/>
<feBlend mode="normal" in="SourceGraphic" in2="effect1_dropShadow_52_1092" result="shape"/>
<feColorMatrix in="SourceAlpha" type="matrix" values="0 0 0 0 0 0 0 0 0 0 0 0 0 0 0 0 0 0 127 0" result="hardAlpha"/>
<feOffset dx="22" dy="12"/>
<feGaussianBlur stdDeviation="11"/>
<feComposite in2="hardAlpha" operator="arithmetic" k2="-1" k3="1"/>
<feColorMatrix type="matrix" values="0 0 0 0 1 0 0 0 0 1 0 0 0 0 1 0 0 0 0.74 0"/>
<feBlend mode="normal" in2="shape" result="effect2_innerShadow_52_1092"/>
</filter>
<filter id="filter3_f_52_1092" x="78" y="199" width="153" height="54" filterUnits="userSpaceOnUse" color-interpolation-filters="sRGB">
<feFlood flood-opacity="0" result="BackgroundImageFix"/>
<feBlend mode="normal" in="SourceGraphic" in2="BackgroundImageFix" result="shape"/>
<feGaussianBlur stdDeviation="4" result="effect1_foregroundBlur_52_1092"/>
</filter>
<filter id="filter4_f_52_1092" x="104" y="186" width="108" height="65" filterUnits="userSpaceOnUse" color-interpolation-filters="sRGB">
<feFlood flood-opacity="0" result="BackgroundImageFix"/>
<feBlend mode="normal" in="SourceGraphic" in2="BackgroundImageFix" result="shape"/>
<feGaussianBlur stdDeviation="2" result="effect1_foregroundBlur_52_1092"/>
</filter>
<filter id="filter5_f_52_1092" x="115" y="198" width="75" height="53" filterUnits="userSpaceOnUse" color-interpolation-filters="sRGB">
<feFlood flood-opacity="0" result="BackgroundImageFix"/>
<feBlend mode="normal" in="SourceGraphic" in2="BackgroundImageFix" result="shape"/>
<feGaussianBlur stdDeviation="2" result="effect1_foregroundBlur_52_1092"/>
</filter>
<linearGradient id="paint0_linear_52_1092" x1="154" y1="230" x2="144.5" y2="294" gradientUnits="userSpaceOnUse">
<stop stop-color="#D601FA"/>
<stop offset="1" stop-color="#FAC301"/>
</linearGradient>
<radialGradient id="paint1_radial_52_1092" cx="0" cy="0" r="1" gradientUnits="userSpaceOnUse" gradientTransform="translate(122.164 119.114) rotate(90.6693) scale(125.829 143.587)">
<stop stop-color="white"/>
<stop offset="1" stop-color="#99CEFF"/>
</radialGradient>
<radialGradient id="paint2_radial_52_1092" cx="0" cy="0" r="1" gradientUnits="userSpaceOnUse" gradientTransform="translate(122.164 119.114) rotate(90.6693) scale(125.829 143.587)">
<stop offset="0.015625" stop-color="#31187A"/>
<stop offset="1" stop-color="#07020A"/>
</radialGradient>
<radialGradient id="paint3_radial_52_1092" cx="0" cy="0" r="1" gradientUnits="userSpaceOnUse" gradientTransform="translate(164.889 240.786) rotate(-90) scale(21.5393 111.274)">
<stop stop-color="#D601FA"/>
<stop offset="1" stop-color="#D601FA" stop-opacity="0"/>
</radialGradient>
<linearGradient id="paint4_linear_52_1092" x1="160.688" y1="245.888" x2="160.688" y2="238.542" gradientUnits="userSpaceOnUse">
<stop stop-color="#D601FA"/>
<stop offset="1" stop-color="#D601FA" stop-opacity="0"/>
</linearGradient>
<linearGradient id="paint5_linear_52_1092" x1="154.361" y1="246.224" x2="154.361" y2="236.077" gradientUnits="userSpaceOnUse">
<stop stop-color="#D601FA"/>
<stop offset="1" stop-color="#D601FA" stop-opacity="0"/>
</linearGradient>
</defs>
</svg>
